<?xml version="1.0" standalone="no"?><!DOCTYPE svg PUBLIC "-//W3C//DTD SVG 1.1//EN" "http://www.w3.org/Graphics/SVG/1.1/DTD/svg11.dtd"><svg t="1756115471186" class="icon" viewBox="0 0 1024 1024" version="1.1" xmlns="http://www.w3.org/2000/svg" p-id="7124" xmlns:xlink="http://www.w3.org/1999/xlink" width="64" height="64"><path d="M337.4 927.3H235.7c-76 0-137.7-61.8-137.7-137.7V688c0-76 61.8-137.7 137.7-137.7h101.6c76 0 137.7 61.8 137.7 137.7v101.6c0.1 75.9-61.7 137.7-137.6 137.7z m-101.7-287c-26.2 0-47.6 21.4-47.6 47.6v101.6c0 26.2 21.4 47.6 47.6 47.6h101.6c26.2 0 47.6-21.4 47.6-47.6V688c0-26.2-21.4-47.6-47.6-47.6H235.7zM769.9 927.3H668.3c-76 0-137.7-61.8-137.7-137.7V688c0-76 61.8-137.7 137.7-137.7h101.6c76 0 137.7 61.8 137.7 137.7v101.6c0 75.9-61.7 137.7-137.7 137.7z m-101.6-287c-26.2 0-47.6 21.4-47.6 47.6v101.6c0 26.2 21.4 47.6 47.6 47.6h101.6c26.2 0 47.6-21.4 47.6-47.6V688c0-26.2-21.4-47.6-47.6-47.6H668.3zM342.4 499.8H235.7C159.8 499.8 98 438 98 362.1V255.4c0-76 61.8-137.7 137.7-137.7h106.7c76 0 137.7 61.8 137.7 137.7v106.7c0 75.9-61.7 137.7-137.7 137.7z m-106.7-292c-26.2 0-47.6 21.4-47.6 47.6v106.7c0 26.2 21.4 47.6 47.6 47.6h106.7c26.2 0 47.6-21.4 47.6-47.6V255.4c0-26.2-21.4-47.6-47.6-47.6H235.7zM718.7 516c-35.3 0-70.5-13.4-97.4-40.3L549.6 404c-53.7-53.7-53.7-141.1 0-194.8l71.7-71.7c53.7-53.7 141.1-53.7 194.8 0l71.7 71.6c53.7 53.7 53.7 141.1 0 194.8l-71.7 71.7c-26.9 26.9-62.2 40.4-97.4 40.4z m0-328.6c-12.2 0-24.4 4.6-33.7 13.9L613.4 273c-9 9-13.9 20.9-13.9 33.7 0 12.7 5 24.7 13.9 33.7L685 412c18.6 18.6 48.8 18.6 67.3 0l71.7-71.7c9-9 13.9-20.9 13.9-33.7 0-12.7-5-24.7-13.9-33.7l-71.7-71.6c-9.2-9.3-21.4-13.9-33.6-13.9z" fill="#333333" p-id="7125"></path></svg>