<?xml version="1.0" standalone="no"?><!DOCTYPE svg PUBLIC "-//W3C//DTD SVG 1.1//EN" "http://www.w3.org/Graphics/SVG/1.1/DTD/svg11.dtd"><svg t="1756115494148" class="icon" viewBox="0 0 1024 1024" version="1.1" xmlns="http://www.w3.org/2000/svg" p-id="7451" xmlns:xlink="http://www.w3.org/1999/xlink" width="64" height="64"><path d="M297 518.5c-3.3 0-6.6-0.4-9.9-1.1-132.8-30.1-218.6-110-218.6-203.6 0-120.9 144-215.5 327.9-215.5 135.9 0 255.4 52.6 304.5 134.1 12.7 21 5.9 48.3-15.1 61-21.1 12.7-48.3 5.9-61-15.1-32.3-53.6-126.3-91.1-228.4-91.1-140.9 0-239 66.8-239 126.7 0 48.9 61.4 97 149.3 116.9 23.9 5.4 38.9 29.2 33.5 53.2-4.5 20.5-22.9 34.5-43.2 34.5z" fill="#333333" p-id="7452"></path><path d="M297.1 719.3c-3.3 0-6.6-0.4-9.9-1.1-132.8-30.1-218.6-110-218.6-203.6V313.8c0-24.5 19.9-44.4 44.4-44.4s44.4 19.9 44.4 44.4v200.8c0 48.9 61.4 97 149.3 116.9 23.9 5.4 38.9 29.2 33.5 53.2-4.5 20.6-22.9 34.6-43.1 34.6z" fill="#333333" p-id="7453"></path><path d="M326.4 925.6c-2.2 0-4.5-0.2-6.8-0.5-147.8-22.7-251-109-251-209.7V514.6c0-24.5 19.9-44.4 44.4-44.4s44.4 19.9 44.4 44.4v200.8c0 54.1 75.5 106.5 175.6 121.9 24.3 3.7 40.9 26.4 37.2 50.7-3.3 21.9-22.2 37.6-43.8 37.6zM667.4 749.4c-162.6 0-290-87.5-290-199.1 0-111.7 127.4-199.1 290-199.1s290 87.5 290 199.1-127.4 199.1-290 199.1z m0-309.4c-118.5 0-201.1 58.1-201.1 110.3 0 52.1 82.6 110.2 201.1 110.2s201.1-58.1 201.1-110.2c0-52.2-82.6-110.3-201.1-110.3z" fill="#333333" p-id="7454"></path><path d="M667.4 930.9c-162.6 0-290-87.5-290-199.1V550.3c0-24.5 19.9-44.4 44.4-44.4s44.4 19.9 44.4 44.4v181.5c0 52.1 82.6 110.2 201.1 110.2s201.1-58.1 201.1-110.2V550.3c0-24.5 19.9-44.4 44.4-44.4s44.4 19.9 44.4 44.4v181.5c0.2 111.6-127.2 199.1-289.8 199.1z" fill="#333333" p-id="7455"></path></svg>